<?xml version="1.0" encoding="UTF-8"?>
<svg version="1.1" xmlns="http://www.w3.org/2000/svg" width="49" height="38">
<path d="M0 0 C1.98 0.495 1.98 0.495 4 1 C4 2.65 4 4.3 4 6 C5.32 6.33 6.64 6.66 8 7 C8.99 5.02 9.98 3.04 11 1 C11.66 1.33 12.32 1.66 13 2 C14.2062252 5.61867559 14.10816918 8.92506251 14.0625 12.6875 C14.05798828 13.38939453 14.05347656 14.09128906 14.04882812 14.81445312 C14.03706927 16.54300538 14.01913454 18.27151365 14 20 C13.01 20 12.02 20 11 20 C10.67 17.36 10.34 14.72 10 12 C7.69 12 5.38 12 3 12 C3 14.97 3 17.94 3 21 C2.01 21 1.02 21 0 21 C-1.57152719 17.85694562 -1.14318589 14.508726 -1.125 11.0625 C-1.12886719 10.33353516 -1.13273438 9.60457031 -1.13671875 8.85351562 C-1.1308304 5.64142264 -1.02261853 3.0678556 0 0 Z " fill="#EEF9FB" transform="translate(7,8)"/>
<path d="M0 0 C1.3125 2.0625 1.3125 2.0625 2 4 C0.68 5.32 -0.64 6.64 -2 8 C-1.67 8 -1.34 8 -1 8 C0.33568021 8.32380126 1.66923011 8.65657551 3 9 C1.25 12.875 1.25 12.875 -1 14 C-4.54231061 14.38503376 -6.36257342 14.41935959 -9.375 12.4375 C-11.5996142 9.1005787 -11.50030235 6.93094707 -11 3 C-8.15831592 -1.05954868 -4.53597421 -1.5119914 0 0 Z " fill="#D7E5EA" transform="translate(37,15)"/>
<path d="M0 0 C0.99 0.33 1.98 0.66 3 1 C2.85870713 3.41700987 2.71213513 5.83350429 2.5625 8.25 C2.52318359 8.93191406 2.48386719 9.61382812 2.44335938 10.31640625 C2.23333528 13.64448041 1.98065998 16.80255402 1 20 C0.01 20 -0.98 20 -2 20 C-3.52584604 16.94830791 -2.91524758 13.87887914 -2.6875 10.5625 C-2.65205078 9.88123047 -2.61660156 9.19996094 -2.58007812 8.49804688 C-2.34242548 4.87650436 -2.05579622 3.08369433 0 0 Z " fill="#DDEAEF" transform="translate(46,7)"/>
<path d="M0 0 C1.98 0.495 1.98 0.495 4 1 C4 2.65 4 4.3 4 6 C5.32 6.33 6.64 6.66 8 7 C8.66 6.01 9.32 5.02 10 4 C10 5.65 10 7.3 10 9 C7 9 4 9 1 9 C0.67 12.3 0.34 15.6 0 19 C-0.33 19 -0.66 19 -1 19 C-1.02697137 16.39576408 -1.04682489 13.79180756 -1.0625 11.1875 C-1.07087891 10.44951172 -1.07925781 9.71152344 -1.08789062 8.95117188 C-1.10259828 5.70077932 -1.03531702 3.10595105 0 0 Z " fill="#A5BAC6" transform="translate(7,8)"/>
<path d="M0 0 C0.33 0 0.66 0 1 0 C1 4.95 1 9.9 1 15 C0.01 15 -0.98 15 -2 15 C-2.33 12.36 -2.66 9.72 -3 7 C-5.31 7 -7.62 7 -10 7 C-10 8.65 -10 10.3 -10 12 C-10.33 12 -10.66 12 -11 12 C-11 10.02 -11 8.04 -11 6 C-7.7 6 -4.4 6 -1 6 C-0.67 4.02 -0.34 2.04 0 0 Z " fill="#C3D4E1" transform="translate(20,13)"/>
<path d="M0 0 C2.375 0.25 2.375 0.25 5 1 C6.3125 3.0625 6.3125 3.0625 7 5 C5.68 6.32 4.36 7.64 3 9 C2.34 8.67 1.68 8.34 1 8 C1.33 7.34 1.66 6.68 2 6 C0.68 5.67 -0.64 5.34 -2 5 C-1.01 4.01 -0.02 3.02 1 2 C0.67 1.34 0.34 0.68 0 0 Z " fill="#B7CAD2" transform="translate(32,14)"/>
<path d="M0 0 C0.99 0.33 1.98 0.66 3 1 C2.67 5.95 2.34 10.9 2 16 C1.67 16 1.34 16 1 16 C0.67 13.36 0.34 10.72 0 8 C-0.99 8.495 -0.99 8.495 -2 9 C-2.25 3.375 -2.25 3.375 0 0 Z " fill="#A7BECC" transform="translate(46,7)"/>
<path d="M0 0 C-0.66 1.32 -1.32 2.64 -2 4 C-2.66 4 -3.32 4 -4 4 C-4 3.34 -4 2.68 -4 2 C-5.32 1.67 -6.64 1.34 -8 1 C-4.93251126 -0.86240388 -3.40254489 -1.2151946 0 0 Z " fill="#ABC5CF" transform="translate(40,24)"/>
<path d="M0 0 C0.66 0.33 1.32 0.66 2 1 C2 2.98 2 4.96 2 7 C1.01 7 0.02 7 -1 7 C-1.04254356 5.00045254 -1.04080783 2.99958364 -1 1 C-0.67 0.67 -0.34 0.34 0 0 Z " fill="#E5F3F7" transform="translate(18,9)"/>
</svg>
