<?xml version="1.0" encoding="UTF-8"?>
<svg version="1.1" xmlns="http://www.w3.org/2000/svg" width="106" height="33">
<path d="M0 0 C34.98 0 69.96 0 106 0 C106 10.89 106 21.78 106 33 C71.02 33 36.04 33 0 33 C0 22.11 0 11.22 0 0 Z " fill="#2B6387" transform="translate(0,0)"/>
<path d="M0 0 C0.66 0 1.32 0 2 0 C2 2.64 2 5.28 2 8 C4.31 8 6.62 8 9 8 C9 6.02 9 4.04 9 2 C13.75 2.75 13.75 2.75 16 5 C16.39764263 6.98821313 16.73775349 8.98944339 17 11 C17.70125 10.34 18.4025 9.68 19.125 9 C22.51895555 6.63898745 23.95168576 6.40962084 28 7 C32.63235294 9.26470588 32.63235294 9.26470588 34 12 C35.73605513 10.26394487 35.65611982 7.79450504 36.0625 5.4375 C36.23910156 4.42558594 36.41570313 3.41367188 36.59765625 2.37109375 C36.73042969 1.58863281 36.86320312 0.80617188 37 0 C38.98 0 40.96 0 43 0 C43.66 2.31 44.32 4.62 45 7 C45.99 7 46.98 7 48 7 C48.66 8.65 49.32 10.3 50 12 C50.61875 11.34 51.2375 10.68 51.875 10 C54 8 54 8 56 8 C57.625 10 57.625 10 59 12 C59.99 10.02 60.98 8.04 62 6 C63.65 6.33 65.3 6.66 67 7 C67 7.66 67 8.32 67 9 C67.86625 8.484375 68.7325 7.96875 69.625 7.4375 C73.39403493 5.83217031 75.10885099 5.98088955 79 7 C79.495 8.485 79.495 8.485 80 10 C80.66 10 81.32 10 82 10 C82.495 11.98 82.495 11.98 83 14 C83.144375 13.21625 83.28875 12.4325 83.4375 11.625 C84 9 84 9 85 7 C90.63470383 6.4502728 93.38987758 8.04952165 98 11 C98 15.62 98 20.24 98 25 C85.53498247 25.04628627 73.06998529 25.08185032 60.60489941 25.10362434 C54.81721657 25.11407337 49.02959242 25.12825299 43.24194336 25.15087891 C37.65932448 25.17256737 32.07676214 25.1845602 26.49410439 25.18975449 C24.36139345 25.19345743 22.22868571 25.2006881 20.09599876 25.21146011 C17.11495588 25.22592186 14.13414834 25.22798017 11.15307617 25.22705078 C9.82274857 25.23783661 9.82274857 25.23783661 8.46554565 25.24884033 C7.65366287 25.246091 6.84178009 25.24334167 6.0052948 25.24050903 C4.94753735 25.24327441 4.94753735 25.24327441 3.86841106 25.24609566 C2 25 2 25 -1 23 C-3.48043185 16.32849365 -2.12228751 7.8584237 -1 1 C-0.67 0.67 -0.34 0.34 0 0 Z " fill="#33688B" transform="translate(8,8)"/>
<path d="M0 0 C0.66 0 1.32 0 2 0 C2 2.64 2 5.28 2 8 C4.31 8 6.62 8 9 8 C9 6.02 9 4.04 9 2 C13.75 2.75 13.75 2.75 16 5 C16.39764263 6.98821313 16.73775349 8.98944339 17 11 C17.70125 10.34 18.4025 9.68 19.125 9 C22.51895555 6.63898745 23.95168576 6.40962084 28 7 C32.63235294 9.26470588 32.63235294 9.26470588 34 12 C35.73605513 10.26394487 35.65611982 7.79450504 36.0625 5.4375 C36.23910156 4.42558594 36.41570313 3.41367188 36.59765625 2.37109375 C36.73042969 1.58863281 36.86320312 0.80617188 37 0 C38.9375 0.375 38.9375 0.375 41 1 C42.1482685 3.296537 42.11561175 4.58313167 42.09765625 7.1328125 C42.09443359 7.93847656 42.09121094 8.74414062 42.08789062 9.57421875 C42.07532227 10.83685547 42.07532227 10.83685547 42.0625 12.125 C42.05798828 12.97449219 42.05347656 13.82398438 42.04882812 14.69921875 C42.03702874 16.79950909 42.01909306 18.8997633 42 21 C38.846632 21.70074844 36.27275026 22 33 22 C32.505 22.495 32.505 22.495 32 23 C29.66702567 23.04092937 27.33294775 23.04241723 25 23 C25 22.34 25 21.68 25 21 C23.68 21 22.36 21 21 21 C22.32 22.32 23.64 23.64 25 25 C21.22923111 25.05799124 17.45857666 25.09359306 13.6875 25.125 C12.61564453 25.14175781 11.54378906 25.15851562 10.43945312 25.17578125 C9.41142578 25.18222656 8.38339844 25.18867187 7.32421875 25.1953125 C6.37635498 25.20578613 5.42849121 25.21625977 4.4519043 25.22705078 C2 25 2 25 -1 23 C-3.48043185 16.32849365 -2.12228751 7.8584237 -1 1 C-0.67 0.67 -0.34 0.34 0 0 Z " fill="#2E6589" transform="translate(8,8)"/>
<path d="M0 0 C1.9375 0.375 1.9375 0.375 4 1 C5.1482685 3.296537 5.11561175 4.58313167 5.09765625 7.1328125 C5.09443359 7.93847656 5.09121094 8.74414062 5.08789062 9.57421875 C5.07951172 10.41597656 5.07113281 11.25773437 5.0625 12.125 C5.05798828 12.97449219 5.05347656 13.82398438 5.04882812 14.69921875 C5.03702874 16.79950909 5.01909306 18.8997633 5 21 C1.846632 21.70074844 -0.72724974 22 -4 22 C-4.33 22.33 -4.66 22.66 -5 23 C-7.33297433 23.04092937 -9.66705225 23.04241723 -12 23 C-12 22.34 -12 21.68 -12 21 C-12.78375 20.731875 -13.5675 20.46375 -14.375 20.1875 C-17 19 -17 19 -19 16 C-19.50734682 12.70224568 -19.31057067 11.44196595 -17.375 8.6875 C-14.29188196 6.49686349 -12.71732258 6.46895392 -9 7 C-4.36764706 9.26470588 -4.36764706 9.26470588 -3 12 C-1.26394487 10.26394487 -1.34388018 7.79450504 -0.9375 5.4375 C-0.76089844 4.42558594 -0.58429687 3.41367188 -0.40234375 2.37109375 C-0.26957031 1.58863281 -0.13679688 0.80617188 0 0 Z " fill="#417293" transform="translate(45,8)"/>
<path d="M0 0 C0.66 0 1.32 0 2 0 C2 2.64 2 5.28 2 8 C4.31 8 6.62 8 9 8 C9 6.02 9 4.04 9 2 C9.99 2 10.98 2 12 2 C13.22517308 7.66642551 13.09228867 13.23708518 13 19 C12.01 19 11.02 19 10 19 C10 16.36 10 13.72 10 11 C7.36 11 4.72 11 2 11 C2 14.3 2 17.6 2 21 C1.01 21 0.02 21 -1 21 C-3.77886052 15.44227897 -1.97358889 6.94970987 -1 1 C-0.67 0.67 -0.34 0.34 0 0 Z " fill="#EBF0F3" transform="translate(8,8)"/>
<path d="M0 0 C0.66 0 1.32 0 2 0 C1.55966813 5.19591612 1.11696661 8.66335081 -2 13 C-3.875 12.6875 -3.875 12.6875 -6 12 C-6.66 11.01 -7.32 10.02 -8 9 C-8.99 9.99 -9.98 10.98 -11 12 C-13.82378039 10.96461386 -14.8243145 10.33380245 -16.25 7.625 C-17 5 -17 5 -17 1 C-16.01 1 -15.02 1 -14 1 C-13.34 2.65 -12.68 4.3 -12 6 C-11.38125 5.34 -10.7625 4.68 -10.125 4 C-8 2 -8 2 -6 2 C-4.375 4 -4.375 4 -3 6 C-2.01 4.02 -1.02 2.04 0 0 Z " fill="#F5F8F9" transform="translate(70,14)"/>
<path d="M0 0 C0.66 2.97 1.32 5.94 2 9 C2.66 9 3.32 9 4 9 C3.67 9.99 3.34 10.98 3 12 C2.38125 11.79375 1.7625 11.5875 1.125 11.375 C0.42375 11.25125 -0.2775 11.1275 -1 11 C-1.66 11.66 -2.32 12.32 -3 13 C-6.29714793 12.67028521 -7.6226839 12.3773161 -10 10 C-9.91474414 6.07823022 -9.45062254 4.46280153 -6.6875 1.625 C-4 0 -4 0 0 0 Z " fill="#F0F4F6" transform="translate(85,14)"/>
<path d="M0 0 C2 2 2 2 2 3.9375 C0.49213949 7.0474623 -1.91625468 7.68776795 -5 9 C-1.71023192 10.09658936 -0.28696233 9.79953138 3 9 C2.34 10.32 1.68 11.64 1 13 C-6.42309859 13.48676056 -6.42309859 13.48676056 -9 11.3125 C-10.19862599 8.5406774 -10.52258446 6.98619691 -10 4 C-7.14978893 -0.0560696 -4.84370712 -0.63178789 0 0 Z " fill="#EAEFF3" transform="translate(36,15)"/>
<path d="M0 0 C3.1875 0.3125 3.1875 0.3125 5.5625 1.875 C7.73205002 5.12932503 7.48201507 7.48380414 7.1875 11.3125 C6.1975 11.6425 5.2075 11.9725 4.1875 12.3125 C3.8575 9.6725 3.5275 7.0325 3.1875 4.3125 C2.1975 4.6425 1.2075 4.9725 0.1875 5.3125 C-0.1425 7.6225 -0.4725 9.9325 -0.8125 12.3125 C-1.8025 12.3125 -2.7925 12.3125 -3.8125 12.3125 C-3.83937279 10.50007948 -3.85883715 8.68754767 -3.875 6.875 C-3.88660156 5.86566406 -3.89820312 4.85632813 -3.91015625 3.81640625 C-3.77158154 0.26335076 -3.56154788 0.39572754 0 0 Z " fill="#F3F6F8" transform="translate(95.8125,14.6875)"/>
<path d="M0 0 C2.64 0 5.28 0 8 0 C8 1.98 8 3.96 8 6 C6.35 6 4.7 6 3 6 C3 7.65 3 9.3 3 11 C1.125 12.0625 1.125 12.0625 -1 13 C-1.66 12.67 -2.32 12.34 -3 12 C-3 11.34 -3 10.68 -3 10 C-2.01 10 -1.02 10 0 10 C0 6.7 0 3.4 0 0 Z " fill="#457596" transform="translate(10,19)"/>
<path d="M0 0 C0.99 0 1.98 0 3 0 C3 6.27 3 12.54 3 19 C1.68 19 0.36 19 -1 19 C-1.02697137 16.39576408 -1.04682489 13.79180756 -1.0625 11.1875 C-1.07087891 10.44951172 -1.07925781 9.71152344 -1.08789062 8.95117188 C-1.10259828 5.70077932 -1.03531702 3.10595105 0 0 Z " fill="#F2F5F8" transform="translate(45,8)"/>
<path d="M0 0 C2 2 2 2 2.22705078 3.87939453 C2.21657715 4.62302246 2.20610352 5.36665039 2.1953125 6.1328125 C2.18886719 6.93847656 2.18242188 7.74414062 2.17578125 8.57421875 C2.15902344 9.41597656 2.14226563 10.25773437 2.125 11.125 C2.11597656 11.97449219 2.10695313 12.82398438 2.09765625 13.69921875 C2.07405647 15.79959884 2.03818483 17.89983444 2 20 C0.35 19.67 -1.3 19.34 -3 19 C-2.01 18.67 -1.02 18.34 0 18 C-0.33 17.34 -0.66 16.68 -1 16 C-1.3305133 10.59513542 -1.11733894 5.30735995 0 0 Z " fill="#5A85A2" transform="translate(48,9)"/>
<path d="M0 0 C0.99 0.33 1.98 0.66 3 1 C3 6.28 3 11.56 3 17 C1.68 16.67 0.36 16.34 -1 16 C-0.34 16 0.32 16 1 16 C0.67 10.72 0.34 5.44 0 0 Z " fill="#5783A0" transform="translate(20,11)"/>
<path d="M0 0 C1.98 0.495 1.98 0.495 4 1 C4 4.3 4 7.6 4 11 C3.01 11.33 2.02 11.66 1 12 C0.34 11.34 -0.32 10.68 -1 10 C-0.67 9.34 -0.34 8.68 0 8 C0.0689472 6.62657169 0.08467708 5.24997898 0.0625 3.875 C0.041875 2.59625 0.02125 1.3175 0 0 Z " fill="#487897" transform="translate(102,18)"/>
<path d="M0 0 C0.33 0 0.66 0 1 0 C1.12117188 0.68707031 1.24234375 1.37414063 1.3671875 2.08203125 C1.53476562 2.98308594 1.70234375 3.88414063 1.875 4.8125 C2.03742187 5.70582031 2.19984375 6.59914063 2.3671875 7.51953125 C2.91188449 10.22727846 2.91188449 10.22727846 5 13 C3.25 15.0625 3.25 15.0625 1 17 C-1.25 16.75 -1.25 16.75 -3 16 C-2.01 15.67 -1.02 15.34 0 15 C0 10.05 0 5.1 0 0 Z " fill="#3E7192" transform="translate(23,13)"/>
<path d="M0 0 C2 2 2 2 2.1953125 3.9453125 C2.13020833 5.96354167 2.06510417 7.98177083 2 10 C1.01 10.33 0.02 10.66 -1 11 C-1.33 11.99 -1.66 12.98 -2 14 C-3.32 13.67 -4.64 13.34 -6 13 C-5.53980469 12.61199219 -5.07960938 12.22398438 -4.60546875 11.82421875 C-2.63207401 9.58194298 -2.0950431 7.68182469 -1.3125 4.8125 C-1.06113281 3.91144531 -0.80976562 3.01039062 -0.55078125 2.08203125 C-0.36902344 1.39496094 -0.18726562 0.70789062 0 0 Z " fill="#5C86A3" transform="translate(72,14)"/>
<path d="M0 0 C-0.33 0.99 -0.66 1.98 -1 3 C-5.455 3.495 -5.455 3.495 -10 4 C-10 2 -10 2 -8.375 0.3125 C-5.22166664 -1.43013159 -3.41580961 -0.8539524 0 0 Z " fill="#55829F" transform="translate(90,25)"/>
<path d="M0 0 C2.64 0 5.28 0 8 0 C7.67 1.32 7.34 2.64 7 4 C4.69 3.67 2.38 3.34 0 3 C0 2.01 0 1.02 0 0 Z " fill="#7498B0" transform="translate(10,19)"/>
<path d="M0 0 C-0.33 1.32 -0.66 2.64 -1 4 C-2.98 4.33 -4.96 4.66 -7 5 C-7 4.34 -7 3.68 -7 3 C-7.66 2.67 -8.32 2.34 -9 2 C-2.25 0 -2.25 0 0 0 Z " fill="#5F89A4" transform="translate(40,26)"/>
<path d="M0 0 C0.99 0.33 1.98 0.66 3 1 C2.67 2.32 2.34 3.64 2 5 C1.34 4.34 0.68 3.68 0 3 C0 5.64 0 8.28 0 11 C-1.32 10.34 -2.64 9.68 -4 9 C-3.34 9 -2.68 9 -2 9 C-2.04125 7.88625 -2.0825 6.7725 -2.125 5.625 C-2 2 -2 2 0 0 Z " fill="#769AB1" transform="translate(97,18)"/>
<path d="M0 0 C2.475 0.495 2.475 0.495 5 1 C5 1.66 5 2.32 5 3 C6.98 3 8.96 3 11 3 C10.67 3.66 10.34 4.32 10 5 C3.47692308 4.50769231 3.47692308 4.50769231 1.0625 1.9375 C0.711875 1.298125 0.36125 0.65875 0 0 Z " fill="#3D7091" transform="translate(28,28)"/>
<path d="M0 0 C1.5625 1.25 1.5625 1.25 3 3 C2.875 5.125 2.875 5.125 2 7 C1.01 7.33 0.02 7.66 -1 8 C-1.04241723 5.66705225 -1.04092937 3.33297433 -1 1 C-0.67 0.67 -0.34 0.34 0 0 Z " fill="#517E9C" transform="translate(97,20)"/>
<path d="M0 0 C0.33 1.32 0.66 2.64 1 4 C-0.98 4.66 -2.96 5.32 -5 6 C-5.66 5.01 -6.32 4.02 -7 3 C-4.69 2.01 -2.38 1.02 0 0 Z " fill="#6F94AD" transform="translate(37,20)"/>
<path d="M0 0 C0.66 0 1.32 0 2 0 C1.67 1.98 1.34 3.96 1 6 C0.01 6 -0.98 6 -2 6 C-1.125 1.125 -1.125 1.125 0 0 Z " fill="#678FA9" transform="translate(81,17)"/>
<path d="M0 0 C0.66 0.99 1.32 1.98 2 3 C0.75 4.5625 0.75 4.5625 -1 6 C-3.1875 5.6875 -3.1875 5.6875 -5 5 C-3.35 3.35 -1.7 1.7 0 0 Z " fill="#6990AA" transform="translate(62,22)"/>
<path d="M0 0 C0.99 0.33 1.98 0.66 3 1 C3.33 2.98 3.66 4.96 4 7 C3.01 7.495 3.01 7.495 2 8 C1.34 5.36 0.68 2.72 0 0 Z " fill="#55819F" transform="translate(85,15)"/>
</svg>
